<svg width="38" height="42" viewBox="0 0 38 42" fill="none" xmlns="http://www.w3.org/2000/svg">
<path d="M25.1865 0.260707C27.1465 0.0146129 29.1963 0.51266 30.8095 1.65719C33.3896 3.4277 34.8398 6.83297 34.0381 9.89938C33.6767 11.4033 33.0742 12.832 32.4726 14.2519C30.8359 17.9414 28.8984 21.4892 26.8838 24.9843C26.7265 25.3164 26.3418 25.5498 25.9756 25.4267C25.7109 25.3672 25.5547 25.1279 25.4336 24.9072C23.4101 21.3906 21.4609 17.8232 19.8281 14.1064C19.1465 12.5009 18.4687 10.8701 18.1719 9.14254C17.7744 6.30465 19.1514 3.3525 21.4765 1.7109C22.5664 0.927699 23.8545 0.423793 25.1865 0.260707ZM23.6201 2.18551C21.0303 3.24118 19.2637 6.0859 19.6182 8.8818C19.8965 10.4765 20.5273 11.9804 21.1533 13.4648C22.623 16.8222 24.3652 20.0507 26.1699 23.2373C26.4492 22.8095 26.6894 22.3574 26.9375 21.9111C28.4707 19.1601 29.9385 16.3681 31.2011 13.4804C31.8271 11.9941 32.4638 10.4882 32.7422 8.88961C33.0683 6.31442 31.6015 3.66989 29.3242 2.46285C27.5928 1.51852 25.4355 1.41598 23.6201 2.18551Z" fill="white"/>
<path d="M25.5751 4.4608C26.54 4.30357 27.5585 4.53111 28.3632 5.0858C29.8798 6.07994 30.4892 8.20786 29.7187 9.85239C29.1347 11.2166 27.7031 12.162 26.2167 12.1551C24.7001 12.1913 23.2236 11.2313 22.6337 9.83482C22.1826 8.82114 22.204 7.61509 22.6865 6.61607C23.2177 5.48033 24.3359 4.6483 25.5751 4.4608ZM25.7675 5.9188C24.9052 6.0604 24.1601 6.7147 23.8964 7.54576C23.5937 8.43833 23.8876 9.49497 24.6113 10.1004C25.2138 10.6336 26.0917 10.8153 26.8613 10.5887C27.9882 10.2801 28.7548 9.06821 28.5536 7.91685C28.3876 6.62779 27.0439 5.66001 25.7675 5.9188Z" fill="white"/>
<path d="M10.2344 14.0361C10.7032 13.8876 11.1768 13.7529 11.6534 13.6318C12.1094 15.2812 12.5996 16.9199 13.0567 18.5693C15.1397 17.9892 17.1973 17.3203 19.2735 16.7167C19.418 17.1835 19.5704 17.6494 19.6875 18.1249C17.1475 18.8867 14.6114 19.6581 12.0723 20.4218C11.4395 18.2997 10.8487 16.164 10.2344 14.0361Z" fill="white"/>
<path d="M6.30176 15.1992C6.75488 15.0888 7.19629 14.9326 7.65137 14.831C7.67481 14.8603 7.7207 14.9189 7.74414 14.9482C10.1631 23.3056 12.5762 31.665 14.9912 40.0234C15.1201 40.5009 15.29 40.9677 15.3818 41.4541C14.9189 41.583 14.46 41.7236 13.9951 41.8408C12.6689 37.3134 11.3613 32.7812 10.0645 28.2451C7.1123 29.0683 4.17676 29.9541 1.22363 30.7763C1.08398 30.3271 0.94043 29.8779 0.835938 29.4199C0.865234 29.3984 0.922852 29.3544 0.952149 29.333C3.84473 28.498 6.73633 27.6611 9.63086 26.832C8.55859 22.9443 7.37695 19.0859 6.30176 15.1992Z" fill="white"/>
<path d="M12.8115 22.9365C15.6064 22.0917 18.4062 21.2597 21.2061 20.4286C21.3477 20.8984 21.499 21.3642 21.6191 21.8398C19.2861 22.5419 16.9434 23.2158 14.6172 23.9394C15.3984 26.6152 16.1406 29.3027 16.9336 31.9755C23.543 30.082 30.1494 28.1757 36.7539 26.2675C36.9043 26.7363 37.0498 27.207 37.1582 27.6874C35.5762 28.1542 33.9805 28.5771 32.4082 29.0722C32.835 30.5878 33.2803 32.0976 33.6953 33.6171C33.2305 33.7636 32.7637 33.9042 32.291 34.0195C31.8477 32.5107 31.4346 30.9931 30.9922 29.4833C29.4043 29.8886 27.8408 30.3876 26.2607 30.8242C23.2871 31.6884 20.3076 32.5322 17.335 33.4003C17.9785 35.6816 18.6436 37.956 19.2871 40.2373C18.8174 40.3779 18.3496 40.5322 17.8672 40.6298C16.1943 34.7285 14.4775 28.8398 12.8115 22.9365Z" fill="white"/>
</svg>
