<svg width="36" height="36" viewBox="0 0 36 36" fill="none" xmlns="http://www.w3.org/2000/svg">
<path d="M26.4018 0.695256C27.0708 -0.178767 28.6372 0.255804 28.8862 1.28901C29.4507 3.56049 29.9878 5.83979 30.5435 8.11322C30.6948 8.64935 30.5776 9.25482 30.1968 9.66791C29.9243 9.99701 29.5024 10.1269 29.1099 10.2499C26.979 10.916 24.856 11.6064 22.7231 12.2656C22.3452 12.4101 21.8784 12.1806 21.7817 11.7851C21.6616 11.4316 21.8716 11.0107 22.2261 10.8945C24.5288 10.1386 26.853 9.44623 29.1499 8.67475C28.6235 6.36811 28.0483 4.07026 27.4897 1.77045C26.9214 2.67572 26.4526 3.63959 25.9038 4.55561C25.2847 4.26654 24.6909 3.92377 24.0571 3.66498C20.9839 2.36225 17.4897 2.11518 14.2485 2.8935C11.0815 3.64545 8.17138 5.41401 6.0288 7.86225C3.77294 10.4238 2.37255 13.7304 2.13427 17.1367C1.89794 20.2206 2.57861 23.371 4.09619 26.0673C5.8208 29.1718 8.61963 31.6611 11.9028 33.0136C14.436 34.0654 17.2456 34.4335 19.9663 34.0898C24.1265 33.5917 28.0298 31.3398 30.5688 28.0107C32.6548 25.3212 33.8296 21.9404 33.853 18.5361C33.8394 18.2206 33.9233 17.8603 34.227 17.7031C34.6528 17.4199 35.2935 17.7451 35.3228 18.2529C35.3696 22.2294 33.9653 26.2011 31.4438 29.2753C29.1577 32.1034 25.9575 34.1796 22.4399 35.1054C19.688 35.8378 16.7534 35.8779 13.9829 35.2216C10.7085 34.4618 7.67529 32.7079 5.3706 30.2626C2.93408 27.704 1.30908 24.3827 0.805171 20.8837C0.277828 17.3495 0.865718 13.6552 2.49658 10.4726C4.17919 7.15424 6.95849 4.40619 10.2993 2.76752C14.936 0.450139 20.6206 0.38471 25.3071 2.60151C25.6938 1.97944 25.9976 1.30658 26.4018 0.695256Z" fill="white"/>
<path d="M16.2554 6.49411C18.5308 6.16989 20.9048 6.49704 22.9888 7.4736C23.4898 7.6738 23.562 8.43649 23.1099 8.72946C22.8247 8.97067 22.44 8.85739 22.1421 8.70993C18.8853 7.25974 14.8941 7.6572 11.9859 9.71872C10.0523 11.0566 8.58939 13.0625 7.91947 15.3173C7.21439 17.666 7.35892 20.2627 8.34428 22.5097C9.48783 25.1689 11.7837 27.3046 14.522 28.2431C17.6314 29.3437 21.2535 28.8632 23.9507 26.956C24.2808 26.7382 24.6197 26.3593 25.0581 26.497C25.606 26.622 25.7867 27.4111 25.3384 27.7558C23.524 29.2002 21.2652 30.0712 18.9556 30.2568C16.7925 30.4365 14.5806 30.0195 12.6402 29.0429C10.022 27.75 7.91361 25.456 6.84721 22.7363C5.96537 20.5293 5.77689 18.0547 6.29252 15.7363C6.87846 13.0547 8.43314 10.6025 10.5962 8.91599C12.229 7.63376 14.2007 6.78806 16.2554 6.49411Z" fill="white"/>
<path d="M22.646 14.325C22.8667 13.9627 23.4077 13.87 23.729 14.1502C23.94 14.3065 24.0103 14.576 24.0015 14.827C24.0064 16.3807 23.9917 17.9344 24.0083 19.4881C24.5347 19.4969 25.061 19.4803 25.5874 19.4959C25.5991 19.9832 25.6011 20.4715 25.5884 20.9598C25.061 20.9686 24.5327 20.9549 24.0054 20.9676C23.9917 21.5848 24.0103 22.202 23.9985 22.8192C23.5103 22.8309 23.023 22.828 22.5357 22.8211C22.5161 22.2049 22.5357 21.5887 22.5269 20.9735C21.5025 20.9403 20.4771 20.9842 19.4536 20.9549C18.898 20.9354 18.5786 20.2186 18.9253 19.7869C20.1665 17.9676 21.4009 16.1414 22.646 14.325ZM20.9146 19.4862C21.4517 19.492 21.9898 19.4959 22.5269 19.4842C22.5298 18.703 22.5337 17.9217 22.522 17.1414C21.9673 17.909 21.4458 18.701 20.9146 19.4862Z" fill="white"/>
<path d="M13.5552 14.8046C14.521 13.8398 16.187 13.7324 17.2808 14.5439C18.0444 15.0751 18.4888 16.0468 18.3364 16.9716C18.2124 17.8398 17.6421 18.5712 16.9663 19.0966C16.1128 19.7607 15.2437 20.4482 14.646 21.3652C15.8491 21.3837 17.0523 21.3603 18.2554 21.3759C18.2573 21.8613 18.2593 22.3476 18.2544 22.833C16.4224 22.8456 14.5903 22.8437 12.7583 22.8339C12.8569 22.2089 12.8853 21.5517 13.189 20.9814C13.7651 19.829 14.7573 18.9589 15.7564 18.1777C16.23 17.8095 16.7671 17.3974 16.8814 16.7714C16.9927 16.1708 16.4849 15.6152 15.9155 15.5087C15.3677 15.3759 14.7319 15.5761 14.4165 16.0576C14.2202 16.3417 14.2651 16.704 14.2378 17.0312C13.7564 17.0322 13.2739 17.0331 12.7925 17.0283C12.6987 16.2197 12.9546 15.3671 13.5552 14.8046Z" fill="white"/>
</svg>
