<svg width="38" height="42" viewBox="0 0 38 42" fill="none" xmlns="http://www.w3.org/2000/svg">
<path d="M9.25294 0.326195C10.0703 0.141625 10.9209 0.205101 11.7422 0.327172C14.1885 0.729515 16.4873 1.73342 18.6719 2.87307C18.9649 3.00783 19.2481 3.26662 19.2305 3.61721C19.2529 4.14651 18.6182 4.53029 18.1592 4.26076C16.3408 3.30764 14.4531 2.44729 12.4492 1.96291C11.5479 1.75881 10.6113 1.58987 9.68849 1.73537C9.37013 1.80276 8.9756 1.93069 8.87599 2.2803C8.79689 2.73342 8.98439 3.18069 9.17677 3.58108C9.68947 4.54885 10.418 5.38381 11.1836 6.16018C12.7168 7.68752 14.4717 8.97658 16.3066 10.1172C18.7334 11.6035 21.4082 12.7862 24.2529 13.1426C25.3438 13.2725 26.4629 13.291 27.541 13.0518C27.8633 12.9619 28.2568 12.9942 28.4668 13.2881C28.792 13.6748 28.5664 14.3408 28.0693 14.4444C26.0625 14.9151 23.9531 14.7041 21.9717 14.2041C19.7793 13.6397 17.709 12.6748 15.7715 11.5147C14.4209 12.8008 13.1279 14.1494 11.7998 15.46C8.62697 18.6436 5.4297 21.8037 2.27345 25.002C7.2588 30.0117 12.2676 35 17.2617 40.001C18.1348 39.2031 18.9395 38.334 19.7861 37.5088C25.1572 32.1387 30.5264 26.7656 35.8984 21.3965C36.0576 21.2822 36.0352 21.0772 36.0371 20.9053C35.9912 18.1367 35.9414 15.3692 35.8994 12.6006C35.877 12.4112 35.9453 12.1709 35.7744 12.0352C34.0488 10.3115 32.3232 8.58693 30.6016 6.8594C30.3936 6.68947 30.2354 6.37404 29.9356 6.38186C27.0381 6.32912 24.1397 6.27834 21.2412 6.23342C21.0176 6.19338 20.874 6.38479 20.7315 6.52053C19.8897 7.38576 19.0166 8.2217 18.1807 9.09279C17.7822 8.79885 17.4297 8.43264 17.126 8.04201C18.1543 7.03615 19.1602 6.00783 20.1826 4.99612C20.3545 4.81155 20.6055 4.7383 20.8535 4.75686C23.915 4.80959 26.9766 4.86233 30.0371 4.91115C30.377 4.90432 30.7647 4.90139 31.0029 5.19045C33.0371 7.22463 35.0732 9.25783 37.1055 11.294C37.3984 11.5488 37.3574 11.96 37.3633 12.3096C37.4131 15.3379 37.4619 18.3672 37.5186 21.3955C37.5391 21.6504 37.4746 21.9131 37.2773 22.0889C30.8018 28.5693 24.3213 35.0469 17.8428 41.5254C17.5645 41.8652 17.0088 41.8731 16.7207 41.542C11.3975 36.2207 6.07521 30.8975 0.752945 25.5752C0.39943 25.2871 0.39357 24.7168 0.748062 24.4277C5.32228 19.8623 9.87989 15.2813 14.4629 10.7256C14.2637 10.5147 14.0068 10.375 13.7725 10.209C12.1143 9.03518 10.5361 7.72658 9.20607 6.18557C8.52345 5.36623 7.87306 4.48342 7.54103 3.45803C7.33009 2.80471 7.29493 2.04983 7.64552 1.4385C7.96876 0.837913 8.60548 0.475609 9.25294 0.326195Z" fill="white"/>
<path d="M27.8272 10.2147C29.4795 9.85928 31.2842 10.8417 31.8721 12.4267C32.5137 13.9638 31.8965 15.8817 30.4883 16.7665C29.3701 17.5136 27.8262 17.537 26.6777 16.8407C26.4053 16.6806 26.0908 16.4686 26.0772 16.1171C26.0264 15.7313 26.332 15.3544 26.7158 15.3144C27.0156 15.2714 27.2588 15.4813 27.5059 15.6142C28.3057 16.078 29.4053 15.912 30.043 15.245C30.501 14.7909 30.7217 14.1181 30.6387 13.4794C30.5576 12.7987 30.1231 12.1728 29.5147 11.8593C28.8067 11.4862 27.874 11.5438 27.2461 12.0517C27.0059 12.2431 26.7598 12.5048 26.4209 12.4501C25.8828 12.4218 25.5567 11.7206 25.8985 11.2997C26.3926 10.7333 27.0967 10.369 27.8272 10.2147Z" fill="white"/>
<path d="M22.3232 19.0479C22.7793 18.8174 23.3877 19.2178 23.3467 19.7305C23.3242 20.2285 22.8369 20.501 22.5352 20.8369C23.0313 21.6543 23.2627 22.6533 23.0342 23.5948C22.876 24.1924 22.5674 24.7696 22.0928 25.1729C21.6885 25.4834 21.0215 25.2198 20.9561 24.709C20.8467 24.1817 21.4121 23.9014 21.543 23.4444C21.9727 22.3008 21.1221 20.9727 19.9609 20.7324C19.3125 20.5791 18.5644 20.7862 18.1602 21.335C17.8769 21.7178 17.9375 22.2285 18.0264 22.666C18.3135 23.9541 18.9121 25.1592 19.1045 26.4707C19.21 27.17 19.1152 27.9248 18.709 28.5196C18.0586 29.4873 16.8242 29.9717 15.6816 29.8174C15.123 29.7696 14.6142 29.5186 14.125 29.2618C13.7637 29.5586 13.4824 30.0967 12.9502 30.0645C12.4463 30.0528 12.1045 29.4405 12.3525 29.003C12.5478 28.7012 12.8369 28.4766 13.0801 28.2168C12.6738 27.4795 12.4053 26.6328 12.543 25.7842C12.6455 25.0557 12.9932 24.336 13.5723 23.8692C13.998 23.5645 14.6719 23.8994 14.6865 24.4229C14.7383 24.9229 14.2002 25.1807 14.0791 25.627C13.668 26.7735 14.5166 28.0918 15.6767 28.3311C16.3135 28.4698 17.0478 28.2852 17.4541 27.752C17.7568 27.3604 17.6865 26.8252 17.6025 26.3721C17.3144 25.1553 16.7812 24.0059 16.5488 22.7754C16.3896 21.9414 16.5068 21.0078 17.0713 20.3428C17.7412 19.5283 18.8389 19.1123 19.8818 19.2324C20.4658 19.2754 20.998 19.5352 21.5088 19.8018C21.7705 19.542 22.001 19.2363 22.3232 19.0479Z" fill="white"/>
</svg>
