<svg width="42" height="40" viewBox="0 0 42 40" fill="none" xmlns="http://www.w3.org/2000/svg">
<path d="M4.4541 1.40134C6.68848 0.8154 9.07227 0.8154 11.3154 1.35837C12.5488 1.68845 13.8184 2.19333 14.6621 3.19431C15.0352 3.6279 15.2578 4.18942 15.2578 4.76364C15.2559 10.0381 15.2568 15.3115 15.2578 20.5859C15.2412 21.4863 15.2852 22.3886 15.2363 23.288C14.7549 23.29 14.2734 23.288 13.792 23.289C13.7861 22.9472 13.7842 22.6054 13.7783 22.2646C12.0098 23.3711 9.8711 23.7002 7.81641 23.6982C5.85254 23.6748 3.8418 23.3017 2.13867 22.2822C2.1377 22.8447 2.0791 23.417 2.18066 23.9736C2.41992 24.5546 3.01172 24.8867 3.54492 25.1611C5.42383 26.0254 7.55274 26.124 9.58497 25.9404C9.65528 26.4199 9.71875 26.9013 9.76172 27.3847C7.17774 27.6591 4.40235 27.4345 2.13672 26.0586C2.12793 26.5459 2.11035 27.0351 2.14063 27.5224C2.14453 27.9062 2.42676 28.2021 2.70313 28.4316C3.28711 28.8925 3.98633 29.1806 4.69629 29.3828C6.23633 29.8427 7.86036 29.8593 9.45118 29.7597C9.50196 30.2392 9.57422 30.7177 9.58497 31.2011C7.05567 31.4345 4.35547 31.1953 2.1377 29.8584C2.13672 30.4072 2.08789 30.9628 2.16309 31.5078C2.37109 32.1035 2.96289 32.4423 3.49121 32.7207C5.375 33.6162 7.51953 33.6943 9.56446 33.54C9.61719 34.0146 9.68165 34.4882 9.72657 34.9638C7.65723 35.2168 5.50781 35.0625 3.54102 34.3408C2.55469 33.9638 1.56543 33.4052 0.996094 32.4834C0.764648 32.1084 0.652344 31.6689 0.658203 31.2294C0.65332 23.6113 0.662109 15.9931 0.65332 8.37497C0.658203 8.22653 0.671875 8.07809 0.686523 7.93063C1.16406 7.93649 1.64063 7.93551 2.11816 7.93258C2.14356 8.33883 2.06738 8.80954 2.36914 9.13473C2.94434 9.80758 3.80469 10.1386 4.62695 10.3994C6.4502 10.9199 8.39356 10.9726 10.2568 10.6484C11.252 10.4511 12.2588 10.1562 13.0928 9.55954C13.4092 9.31735 13.7549 9.00583 13.7744 8.57907C13.8008 8.082 13.7881 7.58298 13.7754 7.08591C12.1045 8.09079 10.1328 8.46286 8.20508 8.49899C6.43164 8.5195 4.6211 8.27536 2.99609 7.53512C2.13281 7.12887 1.28223 6.54684 0.865234 5.65915C0.489258 4.87497 0.65332 3.90134 1.20996 3.24411C2.01758 2.25095 3.25195 1.73532 4.4541 1.40134ZM6.69141 2.48825C5.375 2.62692 4.02344 2.91891 2.90527 3.65915C2.52441 3.93942 2.06348 4.33005 2.14063 4.85739C2.25977 5.36032 2.71484 5.68259 3.12598 5.94528C4.10156 6.51364 5.22071 6.7861 6.33203 6.93356C8.09082 7.13669 9.90919 7.04001 11.5996 6.48434C12.334 6.2236 13.0947 5.88669 13.5889 5.25778C13.8291 4.9736 13.8408 4.53512 13.6162 4.23825C13.208 3.67966 12.5645 3.35739 11.9404 3.09958C10.2754 2.46774 8.45411 2.33688 6.69141 2.48825ZM2.13867 10.8974C2.14356 11.4765 2.06543 12.0713 2.19434 12.6396C2.47754 13.2226 3.08399 13.5576 3.64453 13.83C5.31836 14.5644 7.19043 14.7236 8.99805 14.6035C10.3545 14.4814 11.7471 14.2119 12.916 13.4756C13.2754 13.2275 13.6729 12.9228 13.7627 12.4697C13.8115 11.9482 13.7832 11.4228 13.7773 10.9004C12.0527 11.9463 10.0029 12.3027 8.01075 12.3203C5.98438 12.3173 3.89453 11.9619 2.13867 10.8974ZM2.13965 14.6982C2.13379 15.2539 2.08691 15.8173 2.17285 16.3701C2.35742 16.8613 2.82715 17.1718 3.2627 17.4267C4.45703 18.0713 5.82227 18.3242 7.16504 18.4121C8.89356 18.499 10.6777 18.3261 12.2744 17.6201C12.8496 17.3349 13.4981 16.9892 13.7441 16.3584C13.8291 15.8105 13.7774 15.25 13.7754 14.6972C12.0488 15.7363 10.0029 16.0976 8.01172 16.1123C5.9834 16.1152 3.90137 15.748 2.13965 14.6982ZM2.13867 18.4892C2.15625 19.0918 2.0332 19.7295 2.23242 20.3086C2.75 21.1181 3.71485 21.4814 4.59082 21.7656C6.62696 22.3564 8.82325 22.373 10.8838 21.8886C11.6758 21.6904 12.4658 21.4043 13.127 20.914C13.4414 20.664 13.7793 20.3388 13.7793 19.9062C13.7979 19.4345 13.7891 18.9629 13.7744 18.4912C12.0762 19.5117 10.0684 19.8798 8.10938 19.9052C6.04883 19.9189 3.92871 19.5595 2.13867 18.4892Z" fill="white"/>
<path d="M16.9698 8.86424C25.0908 8.86034 33.2129 8.85448 41.335 8.86717C41.3535 13.9453 41.3369 19.0234 41.3428 24.1015C41.3252 25.4883 41.378 26.8779 41.3174 28.2646C40.8369 28.2617 40.3574 28.2627 39.877 28.2617C39.8604 22.2861 39.8838 16.3105 39.8653 10.3349C32.2344 10.3213 24.6016 10.3359 16.9707 10.3271C16.9551 9.83983 16.9531 9.35155 16.9698 8.86424Z" fill="white"/>
<path d="M16.9707 11.7871C22.415 11.7685 27.8604 11.7842 33.3047 11.7793C34.9853 11.793 36.6689 11.751 38.3486 11.8008C38.3437 18.2998 38.3467 24.7988 38.3467 31.2978C34.709 31.3086 31.0713 31.2998 27.4336 31.3027C27.4043 30.8154 27.4102 30.3271 27.4238 29.8398C30.5742 29.8193 33.7256 29.8408 36.877 29.8291C36.877 24.3096 36.8701 18.791 36.8809 13.2715C34.4199 13.2227 31.957 13.2646 29.4961 13.251C25.3213 13.25 21.1465 13.2519 16.9707 13.249C16.9531 12.7617 16.9541 12.2744 16.9707 11.7871Z" fill="white"/>
<path d="M16.9746 15.1368C22.2207 15.1368 27.4658 15.1387 32.7119 15.1358C32.7324 15.752 32.6582 16.4659 33.1504 16.9337C33.6015 17.46 34.3379 17.4337 34.9678 17.4073C35.001 17.6182 35.0117 17.8321 35.0078 18.0469C34.9941 20.585 35.0185 23.1231 34.9961 25.6612C34.3691 25.6593 33.6387 25.6104 33.1758 26.1221C32.665 26.585 32.7226 27.3145 32.7168 27.9405C30.9531 27.9542 29.1875 27.9561 27.4238 27.9395C27.4131 27.4512 27.3984 26.963 27.4385 26.4766C28.7373 26.4688 30.0361 26.4991 31.3349 26.463C31.626 25.4151 32.4687 24.5684 33.5176 24.2784C33.5566 22.4591 33.5244 20.6387 33.5332 18.8194C32.8789 18.5909 32.251 18.2315 31.8418 17.6563C31.6064 17.3428 31.4658 16.9747 31.3281 16.6114C26.543 16.5987 21.7568 16.6192 16.9717 16.6016C16.9541 16.1143 16.9512 15.6251 16.9746 15.1368Z" fill="white"/>
<path d="M20.4727 18.1036C21.4483 17.7071 22.6084 17.8194 23.4961 18.3848C24.7168 19.1407 25.3809 20.6407 25.207 22.0557C25.1397 22.7286 24.8691 23.3682 24.4854 23.9219C24.0713 23.6671 23.6836 23.3682 23.3184 23.0469C23.5488 22.6544 23.7432 22.2247 23.7568 21.7608C23.834 20.7999 23.2715 19.7784 22.3438 19.4483C21.6309 19.1788 20.79 19.4073 20.2803 19.963C19.6768 20.5772 19.5381 21.4991 19.7168 22.3165C19.251 22.4542 18.7871 22.5977 18.3164 22.7169C18.1309 21.9815 18.1133 21.1964 18.3399 20.4679C18.6524 19.4171 19.4414 18.5001 20.4727 18.1036Z" fill="white"/>
<path d="M29.3418 20.3515C30.0488 20.1249 30.8486 20.7226 30.832 21.4648C30.8672 22.1904 30.1172 22.8046 29.4111 22.6259C28.6894 22.4951 28.2607 21.6113 28.6054 20.9628C28.749 20.666 29.0244 20.4384 29.3418 20.3515Z" fill="white"/>
<path d="M12.7744 25.2489C14.3008 24.3211 16.1113 23.9872 17.874 23.9071C19.9072 23.8485 22.0176 24.1063 23.8359 25.0711C24.8027 25.5907 25.7295 26.4813 25.7588 27.6512C25.7451 30.2118 25.7646 32.7733 25.748 35.3339C25.7207 36.3827 24.9219 37.2108 24.0722 37.7225C22.4482 38.6903 20.5205 38.993 18.6572 39.0389C16.706 39.0477 14.6875 38.7577 12.9619 37.7977C12.0312 37.2762 11.1396 36.3798 11.1562 35.2401C11.1621 33.8124 11.1396 32.3837 11.1592 30.9549C11.6426 30.9462 12.1269 30.9471 12.6113 30.954C12.6406 31.3016 12.5869 31.6971 12.8135 31.993C13.1924 32.4891 13.7568 32.7987 14.3203 33.0409C16.0224 33.7352 17.9043 33.871 19.7207 33.7167C21.0107 33.5809 22.3291 33.2987 23.4375 32.5946C23.8125 32.3339 24.2383 31.9969 24.2676 31.5028C24.3027 30.9989 24.2705 30.493 24.292 29.9891C22.4541 31.1561 20.2099 31.4647 18.0713 31.4325C16.2441 31.3729 14.3584 31.0458 12.7754 30.0829C11.917 29.5585 11.1211 28.6844 11.1582 27.617C11.1699 26.5868 11.9453 25.7606 12.7744 25.2489ZM17.0429 25.4383C15.8281 25.5809 14.5918 25.8553 13.539 26.5038C13.1582 26.7586 12.7461 27.0741 12.6357 27.5428C12.5635 27.9725 12.8926 28.327 13.1963 28.5809C13.8994 29.1444 14.7744 29.4393 15.6367 29.6571C17.5361 30.0848 19.5381 30.078 21.4306 29.6171C22.3242 29.3739 23.248 29.0526 23.9219 28.3905C24.2383 28.1034 24.4013 27.5917 24.1387 27.2176C23.7344 26.617 23.0488 26.2899 22.3994 26.0213C20.6972 25.3876 18.8398 25.2645 17.0429 25.4383ZM12.622 33.7958C12.6465 34.3583 12.581 34.9286 12.6621 35.4862C12.8603 36.0262 13.3847 36.3514 13.8633 36.619C15.1592 37.2772 16.6279 37.5145 18.0683 37.5643C19.7207 37.5995 21.4219 37.3964 22.9277 36.6796C23.4541 36.3993 24.0469 36.0585 24.2519 35.4637C24.3222 34.912 24.2597 34.3524 24.292 33.7977C22.5097 34.9266 20.3428 35.2508 18.2676 35.244C16.3164 35.204 14.29 34.8661 12.622 33.7958Z" fill="white"/>
</svg>
