<svg width="162" height="21" viewBox="0 0 162 21" fill="none" xmlns="http://www.w3.org/2000/svg">
<path d="M154.672 20.944C150.386 20.944 147.345 17.8295 147.345 13.8384C147.345 9.84725 150.386 6.73268 154.672 6.73268C158.958 6.73268 162 9.84725 162 13.8384C162 17.8295 158.958 20.944 154.672 20.944ZM9.79663 10.2948L6.06364 20.7575H4.91807L0 6.97513H1.87637L5.53036 17.27L9.2041 6.97513H10.3892L14.0827 17.27L17.7169 6.97513H19.613L14.6752 20.7575H13.5494L9.79663 10.2948ZM22.1412 13.0551H33.2217C32.8859 10.2575 30.7527 8.18739 27.6913 8.18739C24.6298 8.18739 22.4967 10.2575 22.1412 13.0551ZM22.1412 14.5471C22.4177 17.3819 24.5706 19.508 27.6913 19.508C29.0146 19.508 30.2787 19.135 31.365 18.4076C31.7798 18.1279 32.2736 17.7176 32.5501 17.3073L32.6489 17.1581H34.5647L34.2882 17.6616C33.9525 18.2771 33.3204 18.9112 32.7476 19.3588C31.3058 20.4964 29.5479 21 27.6715 21C23.346 21 20.3241 17.8668 20.3241 13.857C20.3241 9.84725 23.346 6.69538 27.6715 6.69538C29.3109 6.69538 30.9108 7.18028 32.2143 8.13144C33.1427 8.82149 33.8734 9.69805 34.3475 10.7052C34.861 11.8055 35.0783 13.0178 35.019 14.2114L34.9993 14.5284H22.1412V14.5471ZM39.4828 13.8384C39.4828 16.9716 41.6554 19.4893 45.0724 19.4893C48.4894 19.4893 50.6818 16.9529 50.6818 13.8384C50.6818 10.7238 48.5091 8.18739 45.0724 8.18739C41.6357 8.18739 39.4828 10.7238 39.4828 13.8384ZM39.4828 18.2211V20.7575H37.7249V0H39.4828V9.47425C39.7001 9.17584 39.9568 8.89609 40.1939 8.65364C41.5172 7.36679 43.1763 6.69538 45.0724 6.69538C49.398 6.69538 52.4199 9.8286 52.4199 13.8384C52.4199 17.8668 49.3782 20.9813 45.0724 20.9813C43.2158 20.9813 41.5764 20.3472 40.2531 19.0977C39.9766 18.8179 39.7198 18.5382 39.4828 18.2211ZM65.4557 8.74689C66.5223 7.40409 68.0629 6.73268 69.8208 6.73268C71.0849 6.73268 72.2897 7.04973 73.297 7.77709C75.1141 9.10124 75.7067 11.3206 75.7067 13.3908V20.7202H72.6452V13.6892C72.6452 11.8428 72.2107 9.47425 69.7418 9.47425C67.2729 9.47425 66.8383 11.8242 66.8383 13.6892V20.7202H63.7966V13.6892C63.7966 11.8428 63.3621 9.47425 60.8932 9.47425C58.4243 9.47425 57.9898 11.8242 57.9898 13.6892V20.7202H54.9283V6.95648H57.9898V7.51599C58.8786 6.95648 59.9056 6.71403 60.9722 6.71403C62.7696 6.73268 64.3694 7.36679 65.4557 8.74689ZM118.073 18.2025C119.159 18.2025 121.214 17.9973 121.214 16.6172C121.214 16.4307 121.194 16.2256 121.075 16.0577C120.641 15.349 118.725 15.0879 117.935 14.976C115.407 14.659 112.266 13.7638 112.266 10.8171C112.266 10.2389 112.385 9.6794 112.642 9.17584C113.609 7.25488 115.999 6.71403 118.053 6.71403C119.713 6.71403 121.431 7.10568 122.636 8.26199C123.386 8.98934 123.604 9.58615 123.801 10.3881H120.68C120.601 10.2762 120.463 10.127 120.404 10.0897C119.792 9.58615 118.863 9.4556 118.073 9.4556C117.125 9.4556 115.328 9.6048 115.328 10.8171C115.328 10.929 115.347 11.0595 115.407 11.1714C115.743 11.8055 117.56 12.1039 118.231 12.1972C120.996 12.5888 124.255 13.3535 124.255 16.5986C124.255 17.3632 124.058 18.0906 123.604 18.7433C122.438 20.4591 120.068 20.944 118.053 20.944C116.296 20.944 114.459 20.5524 113.135 19.3588C112.622 18.8925 112.108 18.2025 111.931 17.5497L111.832 17.1394H115.031C115.15 17.27 115.288 17.4005 115.387 17.4751C116.138 18.0346 117.165 18.2025 118.073 18.2025ZM128.285 6.97513V3.46892H131.346V6.97513H135.375V9.69805H131.346V14.9947C131.346 15.722 131.346 16.4867 131.484 17.1954C131.524 17.4378 131.623 17.8481 131.84 18.016C132.018 18.1652 132.373 18.1838 132.61 18.1838C133.104 18.1838 133.598 18.0906 134.091 17.9973L135.395 17.7176V20.4218L134.625 20.6456C133.953 20.8321 133.183 20.9254 132.492 20.9254C131.544 20.9254 130.615 20.7389 129.865 20.1607C129.154 19.6012 128.798 18.8366 128.581 17.9973C128.344 17.0089 128.304 16.0018 128.304 14.9947V9.69805H125.48V6.97513H128.285ZM141.32 7.42274C142.17 6.91918 143.138 6.71403 144.145 6.71403C144.836 6.71403 145.587 6.80728 146.258 6.99378L147.009 7.21758V10.0337L145.646 9.6421C145.172 9.51155 144.639 9.4556 144.145 9.4556C143.493 9.4556 142.861 9.58615 142.387 10.0337C141.459 10.9103 141.36 12.7753 141.36 13.9316V20.7016H138.318V6.95648H141.36V7.42274H141.32ZM89.6708 8.15009V6.97513H92.7125V20.7389H89.6708V19.5453C88.4462 20.4778 86.9846 20.944 85.3848 20.944C81.0988 20.944 78.0571 17.8295 78.0571 13.8384C78.0571 9.84725 81.0988 6.73268 85.3848 6.73268C86.9846 6.73268 88.4462 7.19893 89.6708 8.15009ZM89.6708 13.8384C89.6708 11.4139 88.0512 9.4556 85.3848 9.4556C82.7184 9.4556 81.0988 11.4139 81.0988 13.8197C81.0988 16.2256 82.7184 18.1838 85.3848 18.1838C88.0512 18.1838 89.6708 16.2442 89.6708 13.8384ZM98.3614 15.1625C98.8552 17.0089 100.396 18.2025 102.47 18.2025C103.497 18.2025 104.465 17.9414 105.294 17.3632C105.393 17.3073 105.492 17.2327 105.59 17.1394H109.284L109.067 17.5497C108.711 18.2025 108.099 18.8179 107.506 19.2842C106.084 20.4032 104.326 20.9254 102.47 20.9254C98.1836 20.9254 95.1419 17.8108 95.1419 13.8197C95.1419 9.8286 98.1836 6.69538 102.47 6.69538C104.109 6.69538 105.689 7.18028 106.993 8.13144C107.921 8.82149 108.652 9.69805 109.126 10.7052C109.857 12.2345 109.837 13.5027 109.758 15.1252H98.3614V15.1625ZM98.4009 12.421H106.538C106.005 10.6306 104.484 9.47425 102.47 9.47425C100.455 9.4556 98.9342 10.6306 98.4009 12.421ZM158.939 13.8384C158.939 11.4325 157.319 9.47425 154.653 9.47425C151.986 9.47425 150.367 11.4325 150.367 13.8384C150.367 16.2442 151.986 18.2025 154.653 18.2025C157.319 18.2025 158.939 16.2442 158.939 13.8384Z" fill="white"/>
</svg>
